<?xml version="1.0" encoding="utf-8"?>
<!-- Generator: Adobe Illustrator 22.1.0, SVG Export Plug-In . SVG Version: 6.00 Build 0)  -->
<svg version="1.1" id="Layer_1" xmlns="http://www.w3.org/2000/svg" xmlns:xlink="http://www.w3.org/1999/xlink" x="0px" y="0px"
	 viewBox="0 0 60.2 35.1" style="enable-background:new 0 0 60.2 35.1;" xml:space="preserve">
<style type="text/css">
	.st0{fill:#fff;}
</style>
<title>free-shipAsset 1</title>
<g id="Layer_2_1_">
	<g id="_ÎÓÈ_1">
		<path class="st0" d="M44.4,0c0.8,0,1.4,0.6,1.4,1.4c0,0.1,0,0.2,0,0.4l-1.3,4.9H51c0.8,0,1.4,0.6,1.4,1.4v7.4l7,4
			c0.6,0.3,0.9,1,0.8,1.6l-1.5,5.8c0.7,0.3,1.1,1.1,0.9,1.8c-0.2,0.6-0.7,0.9-1.3,1h-2.4c-0.3,1-0.8,1.9-1.5,2.5h2.3
			c0.8,0,1.4,0.6,1.4,1.4c0,0.8-0.6,1.4-1.4,1.4l0,0H3.8c-0.8,0-1.4-0.6-1.4-1.4c0-0.8,0.6-1.4,1.4-1.4h4.4
			c-0.7-0.7-1.3-1.5-1.5-2.5H1.4c-0.8,0.1-1.5-0.5-1.5-1.3c-0.1-0.8,0.5-1.5,1.3-1.5c0.1,0,0.2,0,0.2,0h5.2c0.3-1,0.8-1.8,1.5-2.5
			H4.8c-0.8,0-1.4-0.6-1.4-1.4s0.6-1.4,1.4-1.4h32.7l5-18.7h-32C9.7,2.8,9.1,2.1,9.2,1.3C9.3,0.6,9.8,0.1,10.5,0L44.4,0z M1.4,19
			h7.4c0.8-0.1,1.4-0.8,1.3-1.5c-0.1-0.7-0.6-1.2-1.3-1.3H1.4c-0.8-0.1-1.5,0.5-1.5,1.3c-0.1,0.8,0.5,1.5,1.3,1.5
			C1.3,19,1.3,19,1.4,19z M4.8,13.6h12.1c0.8,0.1,1.5-0.5,1.5-1.3c0.1-0.8-0.5-1.5-1.3-1.5c-0.1,0-0.2,0-0.2,0H4.8
			c-0.8,0.1-1.4,0.8-1.3,1.5C3.6,13,4.1,13.6,4.8,13.6z M4.8,8.3h6c0.8,0,1.4-0.6,1.4-1.4s-0.6-1.4-1.4-1.4h-6
			C4,5.4,3.4,6.1,3.4,6.8S4,8.3,4.8,8.3z M46.9,32.3c-0.7-0.7-1.3-1.6-1.5-2.5H22c-0.8-0.1-1.4-0.8-1.3-1.5c0.1-0.7,0.6-1.2,1.3-1.3
			h14l0.7-2.5H15.6c2.2,2,2.3,5.5,0.3,7.6c-0.1,0.1-0.2,0.2-0.3,0.3H46.9z M50.6,25.7c-1.4,0-2.6,1.1-2.6,2.6s1.1,2.6,2.6,2.6
			c1.4,0,2.6-1.1,2.6-2.6c0,0,0,0,0,0C53.2,26.9,52,25.7,50.6,25.7z M11.9,25.7c-1.4,0-2.6,1.1-2.6,2.6s1.1,2.6,2.6,2.6
			s2.6-1.1,2.6-2.6c0,0,0,0,0,0C14.4,26.9,13.3,25.7,11.9,25.7z M43.9,15.3H50V9.1h-4.5L43.9,15.3z"/>
		<path class="st0" d="M30.3,12c0.4,0.2,0.7,0.5,0.9,0.8c0.2,0.4,0.2,0.9,0.1,1.4c-0.2,0.8-0.6,1.6-1.3,2.1c-0.7,0.6-1.6,0.9-2.6,1
			L27,19h-1.8l0.4-1.6c-0.6-0.1-1.1-0.2-1.7-0.4c-0.4-0.2-0.9-0.4-1.2-0.8l1.2-1.6c0.6,0.6,1.5,0.9,2.3,1L27,13
			c-0.5-0.2-0.9-0.4-1.4-0.6c-0.4-0.2-0.7-0.5-0.9-0.9c-0.2-0.4-0.3-1-0.1-1.4C24.7,9.5,25,9,25.3,8.6c0.4-0.5,0.8-0.8,1.4-1.1
			c0.6-0.3,1.2-0.5,1.8-0.5L29,5.4h1.8L30.3,7c0.9,0.1,1.8,0.4,2.5,1.1l-1.2,1.6c-0.5-0.5-1.2-0.8-1.9-0.9L29,11.4
			C29.5,11.6,29.9,11.8,30.3,12z M27.6,10.9l0.6-2.2c-0.3,0.1-0.6,0.2-0.9,0.4C27.2,9.3,27,9.6,27,9.9
			C26.9,10.3,27.1,10.7,27.6,10.9L27.6,10.9z M29,14.4c0-0.2,0-0.4-0.1-0.5c-0.1-0.2-0.3-0.3-0.5-0.4l-0.6,2.1
			C28.4,15.5,28.9,15,29,14.4z"/>
	</g>
</g>
</svg>
